<?xml version="1.0" standalone="no"?>
<!DOCTYPE svg PUBLIC "-//W3C//DTD SVG 1.1//EN"
"http://www.w3.org/Graphics/SVG/1.1/DTD/svg11.dtd">

<svg width="621" height="431" view_box="0 0 621 431"
xmlns="http://www.w3.org/2000/svg"
xmlns:link="http://www.w3.org/1999/xlink">\n\n<desc>Généré par Mocodo 2.3.7 le Sun, 26 Jun 2022 05:31:23</desc>

<rect id="frame" x="0" y="0" width="621" height="431" fill="#ffffbf" stroke="none" stroke-width="0"/>

<!-- Association ETRE -->
<line x1="435" y1="363" x2="561" y2="363" stroke="#74add1" stroke-width="2"/>
<text x="500" y="380.0" fill="#d73027" font-family="Verdana" font-size="12">1,1</text>
<line x1="561" y1="245" x2="561" y2="363" stroke="#74add1" stroke-width="2"/>
<text x="566.0" y="296" fill="#d73027" font-family="Verdana" font-size="12">0,N</text>
<g id="association-ETRE">
	<path d="M 570 338 a 14 14 90 0 1 14 14 V 363 h -46 V 352 a 14 14 90 0 1 14 -14" fill="#abd9e9" stroke="#abd9e9" stroke-width="0"/>
	<path d="M 584 363.0 v 11 a 14 14 90 0 1 -14 14 H 552 a 14 14 90 0 1 -14 -14 V 363.0 H 46" fill="#e0f3f8" stroke="#e0f3f8" stroke-width="0"/>
	<rect x="538" y="338" width="46" height="50" fill="none" rx="14" stroke="#74add1" stroke-width="2"/>
	<line x1="538" y1="363" x2="584" y2="363" stroke="#74add1" stroke-width="1"/>
	<text x="545" y="355.7" fill="#000000" font-family="Verdana" font-size="12">ETRE</text>
</g>

<!-- Association REDIGER -->
<line x1="435" y1="363" x2="435" y2="245" stroke="#74add1" stroke-width="2"/>
<text x="440.0" y="296" fill="#d73027" font-family="Verdana" font-size="12">0,N</text>
<line x1="435" y1="144" x2="435" y2="245" stroke="#74add1" stroke-width="2"/>
<text x="440.0" y="212" fill="#d73027" font-family="Verdana" font-size="12">1,1</text>
<g id="association-REDIGER">
	<path d="M 457 220 a 14 14 90 0 1 14 14 V 245 h -72 V 234 a 14 14 90 0 1 14 -14" fill="#abd9e9" stroke="#abd9e9" stroke-width="0"/>
	<path d="M 471 245.0 v 11 a 14 14 90 0 1 -14 14 H 413 a 14 14 90 0 1 -14 -14 V 245.0 H 72" fill="#e0f3f8" stroke="#e0f3f8" stroke-width="0"/>
	<rect x="399" y="220" width="72" height="50" fill="none" rx="14" stroke="#74add1" stroke-width="2"/>
	<line x1="399" y1="245" x2="471" y2="245" stroke="#74add1" stroke-width="1"/>
	<text x="406" y="237.7" fill="#000000" font-family="Verdana" font-size="12">REDIGER</text>
</g>

<!-- Association POSSEDE -->
<line x1="55" y1="144" x2="55" y2="43" stroke="#74add1" stroke-width="2"/>
<text x="60.0" y="102" fill="#d73027" font-family="Verdana" font-size="12">1,N</text>
<line x1="188" y1="144" x2="55" y2="43" stroke="#74add1" stroke-width="2"/>
<text x="118" y="121.87036403" fill="#d73027" font-family="Verdana" font-size="12">1,1</text>
<g id="association-POSSEDE">
	<path d="M 78 18 a 14 14 90 0 1 14 14 V 43 h -74 V 32 a 14 14 90 0 1 14 -14" fill="#abd9e9" stroke="#abd9e9" stroke-width="0"/>
	<path d="M 92 43.0 v 11 a 14 14 90 0 1 -14 14 H 32 a 14 14 90 0 1 -14 -14 V 43.0 H 74" fill="#e0f3f8" stroke="#e0f3f8" stroke-width="0"/>
	<rect x="18" y="18" width="74" height="50" fill="none" rx="14" stroke="#74add1" stroke-width="2"/>
	<line x1="18" y1="43" x2="92" y2="43" stroke="#74add1" stroke-width="1"/>
	<text x="25" y="35.7" fill="#000000" font-family="Verdana" font-size="12">POSSEDE</text>
</g>

<!-- Association CITER -->
<line x1="435" y1="144" x2="313" y2="144" stroke="#74add1" stroke-width="2"/>
<text x="367" y="161.0" fill="#d73027" font-family="Verdana" font-size="12">0,1</text>
<line x1="188" y1="144" x2="313" y2="144" stroke="#74add1" stroke-width="2"/>
<text x="237" y="161.0" fill="#d73027" font-family="Verdana" font-size="12">0,N</text>
<g id="association-CITER">
	<path d="M 325 119 a 14 14 90 0 1 14 14 V 144 h -52 V 133 a 14 14 90 0 1 14 -14" fill="#abd9e9" stroke="#abd9e9" stroke-width="0"/>
	<path d="M 339 144.0 v 11 a 14 14 90 0 1 -14 14 H 301 a 14 14 90 0 1 -14 -14 V 144.0 H 52" fill="#e0f3f8" stroke="#e0f3f8" stroke-width="0"/>
	<rect x="287" y="119" width="52" height="50" fill="none" rx="14" stroke="#74add1" stroke-width="2"/>
	<line x1="287" y1="144" x2="339" y2="144" stroke="#74add1" stroke-width="1"/>
	<text x="294" y="136.7" fill="#000000" font-family="Verdana" font-size="12">CITER</text>
</g>

<!-- Association LIER -->
<line x1="188" y1="144" x2="188" y2="245" stroke="#74add1" stroke-width="2"/>
<text x="193.0" y="212" fill="#d73027" font-family="Verdana" font-size="12">0,N</text>
<line x1="188" y1="363" x2="188" y2="245" stroke="#74add1" stroke-width="2"/>
<text x="193.0" y="313" fill="#d73027" font-family="Verdana" font-size="12">1,1</text>
<g id="association-LIER">
	<path d="M 196 220 a 14 14 90 0 1 14 14 V 245 h -44 V 234 a 14 14 90 0 1 14 -14" fill="#abd9e9" stroke="#abd9e9" stroke-width="0"/>
	<path d="M 210 245.0 v 11 a 14 14 90 0 1 -14 14 H 180 a 14 14 90 0 1 -14 -14 V 245.0 H 44" fill="#e0f3f8" stroke="#e0f3f8" stroke-width="0"/>
	<rect x="166" y="220" width="44" height="50" fill="none" rx="14" stroke="#74add1" stroke-width="2"/>
	<line x1="166" y1="245" x2="210" y2="245" stroke="#74add1" stroke-width="1"/>
	<text x="173" y="237.7" fill="#000000" font-family="Verdana" font-size="12">LIER</text>
</g>

<!-- Association DF -->
<line x1="188" y1="144" x2="313" y2="245" stroke="#74add1" stroke-width="2"/>
<text x="237" y="177.567001003" fill="#d73027" font-family="Verdana" font-size="12">1,1</text>
<line x1="435" y1="363" x2="313" y2="245" stroke="#74add1" stroke-width="2"/>
<text x="348" y="315.06285504" fill="#d73027" font-family="Verdana" font-size="12">0,N</text>
<g id="association-DF">
	<circle cx="313" cy="245" r="16" stroke="#74add1" stroke-width="2" fill="#abd9e9"/>
	<text x="304" y="249.0" fill="#000000" font-family="Verdana" font-size="12">DF</text>
</g>

<!-- Association PROVIENT -->
<line x1="313" y1="43" x2="188" y2="43" stroke="#74add1" stroke-width="2"/>
<text x="248" y="60.0" fill="#d73027" font-family="Verdana" font-size="12">1,N</text>
<line x1="188" y1="144" x2="188" y2="43" stroke="#74add1" stroke-width="2"/>
<text x="193.0" y="85" fill="#d73027" font-family="Verdana" font-size="12">1,1</text>
<g id="association-PROVIENT">
	<path d="M 213 18 a 14 14 90 0 1 14 14 V 43 h -78 V 32 a 14 14 90 0 1 14 -14" fill="#abd9e9" stroke="#abd9e9" stroke-width="0"/>
	<path d="M 227 43.0 v 11 a 14 14 90 0 1 -14 14 H 163 a 14 14 90 0 1 -14 -14 V 43.0 H 78" fill="#e0f3f8" stroke="#e0f3f8" stroke-width="0"/>
	<rect x="149" y="18" width="78" height="50" fill="none" rx="14" stroke="#74add1" stroke-width="2"/>
	<line x1="149" y1="43" x2="227" y2="43" stroke="#74add1" stroke-width="1"/>
	<text x="156" y="35.7" fill="#000000" font-family="Verdana" font-size="12">PROVIENT</text>
</g>

<!-- Association ECRIRE -->
<line x1="435" y1="363" x2="313" y2="363" stroke="#74add1" stroke-width="2"/>
<text x="348" y="380.0" fill="#d73027" font-family="Verdana" font-size="12">0,N</text>
<line x1="188" y1="363" x2="313" y2="363" stroke="#74add1" stroke-width="2"/>
<text x="256" y="380.0" fill="#d73027" font-family="Verdana" font-size="12">1,1</text>
<g id="association-ECRIRE">
	<path d="M 329 338 a 14 14 90 0 1 14 14 V 363 h -60 V 352 a 14 14 90 0 1 14 -14" fill="#abd9e9" stroke="#abd9e9" stroke-width="0"/>
	<path d="M 343 363.0 v 11 a 14 14 90 0 1 -14 14 H 297 a 14 14 90 0 1 -14 -14 V 363.0 H 60" fill="#e0f3f8" stroke="#e0f3f8" stroke-width="0"/>
	<rect x="283" y="338" width="60" height="50" fill="none" rx="14" stroke="#74add1" stroke-width="2"/>
	<line x1="283" y1="363" x2="343" y2="363" stroke="#74add1" stroke-width="1"/>
	<text x="290" y="355.7" fill="#000000" font-family="Verdana" font-size="12">ECRIRE</text>
</g>

<!-- Association AVOIR -->
<line x1="55" y1="363" x2="55" y2="245" stroke="#74add1" stroke-width="2"/>
<text x="60.0" y="321" fill="#d73027" font-family="Verdana" font-size="12">1,N</text>
<line x1="188" y1="144" x2="55" y2="245" stroke="#74add1" stroke-width="2"/>
<text x="118" y="175.12963597" fill="#d73027" font-family="Verdana" font-size="12">1,1</text>
<g id="association-AVOIR">
	<path d="M 68 220 a 14 14 90 0 1 14 14 V 245 h -54 V 234 a 14 14 90 0 1 14 -14" fill="#abd9e9" stroke="#abd9e9" stroke-width="0"/>
	<path d="M 82 245.0 v 11 a 14 14 90 0 1 -14 14 H 42 a 14 14 90 0 1 -14 -14 V 245.0 H 54" fill="#e0f3f8" stroke="#e0f3f8" stroke-width="0"/>
	<rect x="28" y="220" width="54" height="50" fill="none" rx="14" stroke="#74add1" stroke-width="2"/>
	<line x1="28" y1="245" x2="82" y2="245" stroke="#74add1" stroke-width="1"/>
	<text x="35" y="237.7" fill="#000000" font-family="Verdana" font-size="12">AVOIR</text>
</g>

<!-- Association FABRIQUER -->
<line x1="561" y1="43" x2="435" y2="43" stroke="#74add1" stroke-width="2"/>
<text x="483" y="60.0" fill="#d73027" font-family="Verdana" font-size="12">1,N</text>
<line x1="188" y1="144" x2="435" y2="43" stroke="#74add1" stroke-width="2"/>
<text x="237" y="139.805780657" fill="#d73027" font-family="Verdana" font-size="12">1,1</text>
<g id="association-FABRIQUER">
	<path d="M 464 18 a 14 14 90 0 1 14 14 V 43 h -86 V 32 a 14 14 90 0 1 14 -14" fill="#abd9e9" stroke="#abd9e9" stroke-width="0"/>
	<path d="M 478 43.0 v 11 a 14 14 90 0 1 -14 14 H 406 a 14 14 90 0 1 -14 -14 V 43.0 H 86" fill="#e0f3f8" stroke="#e0f3f8" stroke-width="0"/>
	<rect x="392" y="18" width="86" height="50" fill="none" rx="14" stroke="#74add1" stroke-width="2"/>
	<line x1="392" y1="43" x2="478" y2="43" stroke="#74add1" stroke-width="1"/>
	<text x="399" y="35.7" fill="#000000" font-family="Verdana" font-size="12">FABRIQUER</text>
</g>

<!-- Entity STYLE -->
<g id="entity-STYLE">
	<g id="frame-STYLE">
		<rect x="17" y="329" width="76" height="25" fill="#fdae61" stroke="#fdae61" stroke-width="0"/>
		<rect x="17" y="354.0" width="76" height="43" fill="#fee090" stroke="#fee090" stroke-width="0"/>
		<rect x="17" y="329" width="76" height="68" fill="none" stroke="#f46d43" stroke-width="2"/>
		<line x1="17" y1="354" x2="93" y2="354" stroke="#f46d43" stroke-width="1"/>
	</g>
	<text x="36" y="346.7" fill="#000000" font-family="Verdana" font-size="12">STYLE</text>
	<text x="22" y="371.8" fill="#000000" font-family="Verdana" font-size="12">code_style</text>
	<line x1="22" y1="374" x2="87" y2="374" stroke="#000000" stroke-width="1"/>
	<text x="22" y="388.8" fill="#000000" font-family="Verdana" font-size="12">nom</text>
</g>

<!-- Entity COULEUR -->
<g id="entity-COULEUR">
	<g id="frame-COULEUR">
		<rect x="9" y="110" width="92" height="25" fill="#fdae61" stroke="#fdae61" stroke-width="0"/>
		<rect x="9" y="135.0" width="92" height="43" fill="#fee090" stroke="#fee090" stroke-width="0"/>
		<rect x="9" y="110" width="92" height="68" fill="none" stroke="#f46d43" stroke-width="2"/>
		<line x1="9" y1="135" x2="101" y2="135" stroke="#f46d43" stroke-width="1"/>
	</g>
	<text x="25" y="127.7" fill="#000000" font-family="Verdana" font-size="12">COULEUR</text>
	<text x="14" y="152.8" fill="#000000" font-family="Verdana" font-size="12">code_couleur</text>
	<line x1="14" y1="155" x2="95" y2="155" stroke="#000000" stroke-width="1"/>
	<text x="14" y="169.8" fill="#000000" font-family="Verdana" font-size="12">nom</text>
</g>

<!-- Entity PAYS -->
<g id="entity-PAYS">
	<g id="frame-PAYS">
		<rect x="275" y="9" width="76" height="25" fill="#fdae61" stroke="#fdae61" stroke-width="0"/>
		<rect x="275" y="34.0" width="76" height="43" fill="#fee090" stroke="#fee090" stroke-width="0"/>
		<rect x="275" y="9" width="76" height="68" fill="none" stroke="#f46d43" stroke-width="2"/>
		<line x1="275" y1="34" x2="351" y2="34" stroke="#f46d43" stroke-width="1"/>
	</g>
	<text x="297" y="26.7" fill="#000000" font-family="Verdana" font-size="12">PAYS</text>
	<text x="280" y="51.8" fill="#000000" font-family="Verdana" font-size="12">code_pays</text>
	<line x1="280" y1="54" x2="345" y2="54" stroke="#000000" stroke-width="1"/>
	<text x="280" y="68.8" fill="#000000" font-family="Verdana" font-size="12">nom</text>
</g>

<!-- Entity UTILISATEUR -->
<g id="entity-UTILISATEUR">
	<g id="frame-UTILISATEUR">
		<rect x="375" y="304" width="120" height="25" fill="#fdae61" stroke="#fdae61" stroke-width="0"/>
		<rect x="375" y="329.0" width="120" height="93" fill="#fee090" stroke="#fee090" stroke-width="0"/>
		<rect x="375" y="304" width="120" height="118" fill="none" stroke="#f46d43" stroke-width="2"/>
		<line x1="375" y1="329" x2="495" y2="329" stroke="#f46d43" stroke-width="1"/>
	</g>
	<text x="393" y="321.7" fill="#000000" font-family="Verdana" font-size="12">UTILISATEUR</text>
	<text x="380" y="346.7" fill="#000000" font-family="Verdana" font-size="12">code_utilisateur</text>
	<line x1="380" y1="349" x2="477" y2="349" stroke="#000000" stroke-width="1"/>
	<text x="380" y="363.8" fill="#000000" font-family="Verdana" font-size="12">pseudo</text>
	<text x="380" y="380.8" fill="#000000" font-family="Verdana" font-size="12">date de naissance</text>
	<text x="380" y="397.8" fill="#000000" font-family="Verdana" font-size="12">email</text>
	<text x="380" y="414.8" fill="#000000" font-family="Verdana" font-size="12">password</text>
</g>

<!-- Entity ROLE -->
<g id="entity-ROLE">
	<g id="frame-ROLE">
		<rect x="526" y="211" width="70" height="25" fill="#fdae61" stroke="#fdae61" stroke-width="0"/>
		<rect x="526" y="236.0" width="70" height="43" fill="#fee090" stroke="#fee090" stroke-width="0"/>
		<rect x="526" y="211" width="70" height="68" fill="none" stroke="#f46d43" stroke-width="2"/>
		<line x1="526" y1="236" x2="596" y2="236" stroke="#f46d43" stroke-width="1"/>
	</g>
	<text x="544" y="228.7" fill="#000000" font-family="Verdana" font-size="12">ROLE</text>
	<text x="531" y="253.8" fill="#000000" font-family="Verdana" font-size="12">code_role</text>
	<line x1="531" y1="256" x2="591" y2="256" stroke="#000000" stroke-width="1"/>
	<text x="531" y="270.8" fill="#000000" font-family="Verdana" font-size="12">nom</text>
</g>

<!-- Entity BRASSERIE -->
<g id="entity-BRASSERIE">
	<g id="frame-BRASSERIE">
		<rect x="510" y="9" width="102" height="25" fill="#fdae61" stroke="#fdae61" stroke-width="0"/>
		<rect x="510" y="34.0" width="102" height="43" fill="#fee090" stroke="#fee090" stroke-width="0"/>
		<rect x="510" y="9" width="102" height="68" fill="none" stroke="#f46d43" stroke-width="2"/>
		<line x1="510" y1="34" x2="612" y2="34" stroke="#f46d43" stroke-width="1"/>
	</g>
	<text x="525" y="26.7" fill="#000000" font-family="Verdana" font-size="12">BRASSERIE</text>
	<text x="515" y="51.8" fill="#000000" font-family="Verdana" font-size="12">code_brasserie</text>
	<line x1="515" y1="54" x2="607" y2="54" stroke="#000000" stroke-width="1"/>
	<text x="515" y="68.8" fill="#000000" font-family="Verdana" font-size="12">nom</text>
</g>

<!-- Entity COMMENTAIRE -->
<g id="entity-COMMENTAIRE">
	<g id="frame-COMMENTAIRE">
		<rect x="125" y="321" width="126" height="25" fill="#fdae61" stroke="#fdae61" stroke-width="0"/>
		<rect x="125" y="346.0" width="126" height="59" fill="#fee090" stroke="#fee090" stroke-width="0"/>
		<rect x="125" y="321" width="126" height="84" fill="none" stroke="#f46d43" stroke-width="2"/>
		<line x1="125" y1="346" x2="251" y2="346" stroke="#f46d43" stroke-width="1"/>
	</g>
	<text x="142" y="338.7" fill="#000000" font-family="Verdana" font-size="12">COMMENTAIRE</text>
	<text x="130" y="363.8" fill="#000000" font-family="Verdana" font-size="12">code_commentaire</text>
	<line x1="130" y1="366" x2="246" y2="366" stroke="#000000" stroke-width="1"/>
	<text x="130" y="380.8" fill="#000000" font-family="Verdana" font-size="12">contenu</text>
	<text x="130" y="397.8" fill="#000000" font-family="Verdana" font-size="12">note</text>
</g>

<!-- Entity ARTICLE -->
<g id="entity-ARTICLE">
	<g id="frame-ARTICLE">
		<rect x="393" y="93" width="84" height="25" fill="#fdae61" stroke="#fdae61" stroke-width="0"/>
		<rect x="393" y="118.0" width="84" height="77" fill="#fee090" stroke="#fee090" stroke-width="0"/>
		<rect x="393" y="93" width="84" height="102" fill="none" stroke="#f46d43" stroke-width="2"/>
		<line x1="393" y1="118" x2="477" y2="118" stroke="#f46d43" stroke-width="1"/>
	</g>
	<text x="408" y="110.7" fill="#000000" font-family="Verdana" font-size="12">ARTICLE</text>
	<text x="398" y="135.7" fill="#000000" font-family="Verdana" font-size="12">code_article</text>
	<line x1="398" y1="138" x2="472" y2="138" stroke="#000000" stroke-width="1"/>
	<text x="398" y="152.8" fill="#000000" font-family="Verdana" font-size="12">titre</text>
	<text x="398" y="169.8" fill="#000000" font-family="Verdana" font-size="12">contenu</text>
	<text x="398" y="186.8" fill="#000000" font-family="Verdana" font-size="12">date</text>
</g>

<!-- Entity BIERE -->
<g id="entity-BIERE">
	<g id="frame-BIERE">
		<rect x="144" y="93" width="88" height="25" fill="#fdae61" stroke="#fdae61" stroke-width="0"/>
		<rect x="144" y="118.0" width="88" height="77" fill="#fee090" stroke="#fee090" stroke-width="0"/>
		<rect x="144" y="93" width="88" height="102" fill="none" stroke="#f46d43" stroke-width="2"/>
		<line x1="144" y1="118" x2="232" y2="118" stroke="#f46d43" stroke-width="1"/>
	</g>
	<text x="169" y="110.7" fill="#000000" font-family="Verdana" font-size="12">BIERE</text>
	<text x="149" y="135.7" fill="#000000" font-family="Verdana" font-size="12">code_biere</text>
	<line x1="149" y1="138" x2="216" y2="138" stroke="#000000" stroke-width="1"/>
	<text x="149" y="152.8" fill="#000000" font-family="Verdana" font-size="12">nom</text>
	<text x="149" y="169.8" fill="#000000" font-family="Verdana" font-size="12">description</text>
	<text x="149" y="186.8" fill="#000000" font-family="Verdana" font-size="12">taux d'alcool</text>
</g>
</svg>